<?xml version="1.0" encoding="UTF-8" standalone="no"?>
<!-- Created with Inkscape (http://www.inkscape.org/) -->

<svg
   xmlns:dc="http://purl.org/dc/elements/1.1/"
   xmlns:cc="http://creativecommons.org/ns#"
   xmlns:rdf="http://www.w3.org/1999/02/22-rdf-syntax-ns#"
   xmlns:svg="http://www.w3.org/2000/svg"
   xmlns="http://www.w3.org/2000/svg"
   xmlns:xlink="http://www.w3.org/1999/xlink"
   xmlns:sodipodi="http://sodipodi.sourceforge.net/DTD/sodipodi-0.dtd"
   xmlns:inkscape="http://www.inkscape.org/namespaces/inkscape"
   width="1200"
   height="800"
   viewBox="0 0 317.49999 211.66667"
   version="1.1"
   id="svg859"
   inkscape:version="0.92.4 (5da689c313, 2019-01-14)"
   sodipodi:docname="doc-discussions.svg"
   inkscape:export-filename="C:\Users\a73m1zz\Pictures\doc-discussions.png"
   inkscape:export-xdpi="290.32999"
   inkscape:export-ydpi="290.32999">
  <defs
     id="defs853">
    <linearGradient
       inkscape:collect="always"
       id="linearGradient1440">
      <stop
         style="stop-color:#7b98ba;stop-opacity:1;"
         offset="0"
         id="stop1436" />
      <stop
         style="stop-color:#d1566f;stop-opacity:1"
         offset="1"
         id="stop1438" />
    </linearGradient>
    <linearGradient
       inkscape:collect="always"
       xlink:href="#linearGradient1440"
       id="linearGradient1442"
       x1="22.256086"
       y1="268.79347"
       x2="256.47105"
       y2="268.79347"
       gradientUnits="userSpaceOnUse"
       gradientTransform="matrix(0.97952444,0,0,0.68292682,3.900493,84.479387)" />
    <linearGradient
       inkscape:collect="always"
       xlink:href="#linearGradient1440"
       id="linearGradient1462"
       gradientUnits="userSpaceOnUse"
       gradientTransform="matrix(0.97952444,0,0,0.68292682,3.900493,84.479387)"
       x1="22.256086"
       y1="268.79347"
       x2="256.47105"
       y2="268.79347" />
  </defs>
  <sodipodi:namedview
     id="base"
     pagecolor="#ffffff"
     bordercolor="#666666"
     borderopacity="1.0"
     inkscape:pageopacity="0.0"
     inkscape:pageshadow="2"
     inkscape:zoom="0.7"
     inkscape:cx="774.2063"
     inkscape:cy="411.59017"
     inkscape:document-units="mm"
     inkscape:current-layer="g1432"
     showgrid="false"
     units="px"
     inkscape:window-width="1920"
     inkscape:window-height="1001"
     inkscape:window-x="-9"
     inkscape:window-y="-9"
     inkscape:window-maximized="1" />
  <metadata
     id="metadata856">
    <rdf:RDF>
      <cc:Work
         rdf:about="">
        <dc:format>image/svg+xml</dc:format>
        <dc:type
           rdf:resource="http://purl.org/dc/dcmitype/StillImage" />
        <dc:title></dc:title>
      </cc:Work>
    </rdf:RDF>
  </metadata>
  <g
     inkscape:label="Layer 1"
     inkscape:groupmode="layer"
     id="layer1"
     transform="translate(0,-85.333317)">
    <g
       id="g1432"
       transform="matrix(1.2636056,0,0,1.2636056,-18.673509,-55.311153)">
      <g
         id="g1460"
         transform="translate(-3.3464354e-5,-14.033722)">
        <text
           xml:space="preserve"
           style="font-style:normal;font-variant:normal;font-weight:normal;font-stretch:normal;font-size:47.1075325px;line-height:1.25;font-family:'Fjalla One';-inkscape-font-specification:'Fjalla One, Normal';font-variant-ligatures:normal;font-variant-caps:normal;font-variant-numeric:normal;font-feature-settings:normal;text-align:start;letter-spacing:0px;word-spacing:0px;writing-mode:lr-tb;text-anchor:start;fill:#2b2728;fill-opacity:1;stroke:none;stroke-width:1.17768836"
           x="22.342651"
           y="243.79797"
           id="text1410"><tspan
             sodipodi:role="line"
             id="tspan1408"
             x="22.342651"
             y="243.79797"
             style="font-style:normal;font-variant:normal;font-weight:normal;font-stretch:normal;font-size:47.1075325px;font-family:'Fjalla One';-inkscape-font-specification:'Fjalla One, Normal';font-variant-ligatures:normal;font-variant-caps:normal;font-variant-numeric:normal;font-feature-settings:normal;text-align:start;writing-mode:lr-tb;text-anchor:start;fill:#2b2728;fill-opacity:1;stroke-width:1.17768836">DISCUSSIONS</tspan></text>
        <text
           xml:space="preserve"
           style="font-style:normal;font-variant:normal;font-weight:normal;font-stretch:normal;font-size:47.13463593px;line-height:1.25;font-family:'Fjalla One';-inkscape-font-specification:'Fjalla One, Normal';font-variant-ligatures:normal;font-variant-caps:normal;font-variant-numeric:normal;font-feature-settings:normal;text-align:start;letter-spacing:0px;word-spacing:0px;writing-mode:lr-tb;text-anchor:start;fill:#2b2728;fill-opacity:1;stroke:none;stroke-width:1.17836595"
           x="22.340816"
           y="185.60703"
           id="text1406"><tspan
             sodipodi:role="line"
             id="tspan1404"
             x="22.340816"
             y="185.60703"
             style="font-style:normal;font-variant:normal;font-weight:normal;font-stretch:normal;font-size:47.13463593px;font-family:'Fjalla One';-inkscape-font-specification:'Fjalla One, Normal';font-variant-ligatures:normal;font-variant-caps:normal;font-variant-numeric:normal;font-feature-settings:normal;text-align:start;writing-mode:lr-tb;text-anchor:start;fill:#2b2728;fill-opacity:1;stroke-width:1.17836595">DOC</tspan></text>
        <path
           style="fill:#7b98ba;fill-opacity:1;stroke-width:0.07812501"
           d="m 227.62022,145.95225 c -4.14062,0 -7.5,3.35938 -7.5,7.5 v 25 c 0,4.14062 3.35938,7.5 7.5,7.5 h 25.625 c 1.03906,0 1.875,-0.83594 1.875,-1.875 v -1.25 c 0,-0.58594 -0.27331,-1.11712 -0.69518,-1.46087 -0.32814,-1.20314 -0.32814,-4.63291 0,-5.83603 0.42187,-0.33595 0.69518,-0.86717 0.69518,-1.4531 v -26.25 c 0,-1.03906 -0.83594,-1.875 -1.875,-1.875 z m 7.54013,6.31714 c 1.45089,0 2.62605,1.17531 2.62605,2.62619 0,1.17515 -0.77141,2.16975 -1.83823,2.50457 v 4.72687 c 0.78452,-0.37749 1.74307,-0.46945 2.66875,-0.55481 1.17844,-0.10831 2.29112,-0.21341 2.79664,-0.84366 0.22321,-0.27573 0.34148,-0.68275 0.36117,-1.21124 -1.08981,-0.3184 -1.88751,-1.3262 -1.88751,-2.52105 0,-1.45089 1.17514,-2.62589 2.62604,-2.62589 1.45089,0 2.62603,1.175 2.62603,2.62589 0,1.15545 -0.74845,2.13709 -1.78573,2.4916 -0.0164,0.92241 -0.24936,1.65769 -0.70893,2.22885 -0.92567,1.1489 -2.49476,1.29655 -3.88,1.42456 -0.84361,0.0787 -1.63803,0.15106 -2.1698,0.42023 -0.23306,0.11817 -0.38729,0.26907 -0.48904,0.43977 0.98476,0.37748 1.68061,1.3328 1.68061,2.44887 0,1.45089 -1.17516,2.62605 -2.62605,2.62605 -1.45089,0 -2.62603,-1.17516 -2.62603,-2.62605 0,-1.17515 0.77139,-2.16983 1.83822,-2.50793 v -6.54206 c -1.06683,-0.33482 -1.83822,-1.32942 -1.83822,-2.50457 0,-1.45088 1.17514,-2.62619 2.62603,-2.62619 z m 0,2.10098 c -0.28887,0 -0.5252,0.23634 -0.5252,0.52521 0,0.28886 0.23633,0.52521 0.5252,0.52521 0.28886,0 0.52521,-0.23635 0.52521,-0.52521 0,-0.28887 -0.23635,-0.52521 -0.52521,-0.52521 z m 7.35291,2.10083 c -0.28886,0 -0.52521,0.23619 -0.52521,0.52506 0,0.28886 0.23635,0.52536 0.52521,0.52536 0.28886,0 0.5252,-0.2365 0.5252,-0.52536 0,-0.28887 -0.23634,-0.52506 -0.5252,-0.52506 z m -7.35291,9.45374 c -0.28887,0 -0.5252,0.23633 -0.5252,0.5252 0,0.28887 0.23633,0.52521 0.5252,0.52521 0.28886,0 0.52521,-0.23634 0.52521,-0.52521 0,-0.28887 -0.23635,-0.5252 -0.52521,-0.5252 z m -7.54013,10.02731 h 22.29691 c -0.14844,1.33594 -0.14844,3.66406 0,5 h -22.29691 c -1.38282,0 -2.49999,-1.11718 -2.49999,-2.5 0,-1.375 1.12499,-2.5 2.49999,-2.5 z"
           id="path2"
           inkscape:connector-curvature="0" />
        <rect
           ry="0.0054533109"
           y="263.85794"
           x="25.700871"
           height="8.3755035"
           width="229.41928"
           id="rect1434"
           style="opacity:1;fill:url(#linearGradient1462);fill-opacity:1;stroke:none;stroke-width:0.23975831;stroke-linecap:round;stroke-linejoin:round;stroke-miterlimit:4;stroke-dasharray:none;stroke-opacity:1;paint-order:markers fill stroke" />
      </g>
    </g>
  </g>
</svg>
